<svg width="60" height="60" viewBox="0 0 60 60" fill="none" xmlns="http://www.w3.org/2000/svg">
  <path d="M30 15 Q20 10 12 18 Q8 28 18 35 Q28 40 30 30" stroke="#c9b896" stroke-width="1.5" fill="none"/>
  <path d="M30 15 Q40 10 48 18 Q52 28 42 35 Q32 40 30 30" stroke="#c9b896" stroke-width="1.5" fill="none"/>
  <path d="M30 30 Q22 35 15 45 Q12 52 20 55 Q28 52 30 45" stroke="#c9b896" stroke-width="1.5" fill="none"/>
  <path d="M30 30 Q38 35 45 45 Q48 52 40 55 Q32 52 30 45" stroke="#c9b896" stroke-width="1.5" fill="none"/>
  <ellipse cx="30" cy="30" rx="3" ry="12" fill="#c9b896" opacity="0.6"/>
</svg>
